<svg width="30" height="24" viewBox="0 0 30 24" fill="none" xmlns="http://www.w3.org/2000/svg">
<path d="M24.1406 14.5852C24.7879 14.5852 25.3125 15.1098 25.3125 15.7571V17.1633C25.3125 17.8106 24.7879 18.3352 24.1406 18.3352H21.4453C20.798 18.3352 20.2734 17.8106 20.2734 17.1633V15.7571C20.2734 15.1098 20.798 14.5852 21.4453 14.5852H24.1406ZM27.6562 12.4758V8.96022H2.34375V18.3281C2.34375 19.6204 3.39523 20.6719 4.6875 20.6719H25.3125C26.6048 20.6719 27.6562 19.6204 27.6562 18.3281C27.6562 17.6808 28.1808 17.1562 28.8281 17.1562C29.4754 17.1562 30 17.6808 30 18.3281C30 20.9129 27.8973 23.0156 25.3125 23.0156H4.6875C2.10274 23.0156 0 20.9129 0 18.3281V5.67188C0 3.08711 2.10274 0.984375 4.6875 0.984375H25.3125C27.8973 0.984375 30 3.08711 30 5.67188V12.4758C30 13.1231 29.4754 13.6477 28.8281 13.6477C28.1808 13.6477 27.6562 13.1231 27.6562 12.4758ZM27.6562 6.61647V5.67188C27.6562 4.37961 26.6048 3.32812 25.3125 3.32812H4.6875C3.39523 3.32812 2.34375 4.37961 2.34375 5.67188V6.61647H27.6562ZM5.85938 11.304C5.2121 11.304 4.6875 11.8286 4.6875 12.4758C4.6875 13.1231 5.2121 13.6477 5.85938 13.6477H15.5273C16.1746 13.6477 16.6992 13.1231 16.6992 12.4758C16.6992 11.8286 16.1746 11.304 15.5273 11.304H5.85938Z" fill="#FF8B2E"/>
</svg>
